<svg width="48" height="79" viewBox="0 0 48 79" fill="none" xmlns="http://www.w3.org/2000/svg">
    <path fill-rule="evenodd" clip-rule="evenodd" d="M24.2456 0.105591C20.336 0.105591 17.1666 3.27498 17.1666 7.18461C17.1666 11.0942 20.336 14.2636 24.2456 14.2636C28.1552 14.2636 31.3246 11.0942 31.3246 7.18461C31.3246 3.27498 28.1552 0.105591 24.2456 0.105591ZM18.8648 7.18461C18.8648 4.21287 21.2739 1.80381 24.2456 1.80381C27.2173 1.80381 29.6264 4.21287 29.6264 7.18461C29.6264 10.1563 27.2173 12.5654 24.2456 12.5654C21.2739 12.5654 18.8648 10.1563 18.8648 7.18461Z" fill="#fff"/>
    <path fill-rule="evenodd" clip-rule="evenodd" d="M3.31982 12.8786L18.2107 30.0948V18.5749C18.2107 17.7933 18.8443 17.1597 19.6259 17.1597H28.8653C29.6469 17.1597 30.2805 17.7933 30.2805 18.5749V30.0948L45.1714 12.8786C45.9376 11.9928 47.4114 12.5231 47.4069 13.7148C47.3953 16.7593 47.3142 20.9753 47.1184 23.9523C46.9875 25.9436 46.1639 27.7727 44.9306 29.2667C42.0489 32.7576 39.9268 35.0734 38.3651 36.73C37.9913 37.1266 37.6543 37.4807 37.3499 37.8005L37.3487 37.8018C36.3572 38.8436 35.7106 39.523 35.258 40.1276C34.8832 40.6283 34.9763 41.506 35.762 42.328C41.7027 48.5438 44.8777 52.8306 46.4269 56.6021C47.9994 60.4308 47.8601 63.6436 47.4233 67.5476C47.2908 68.7324 45.8435 69.2291 45.0101 68.3809L30.2805 53.3908V76.7077C30.2805 77.4893 29.6469 78.1228 28.8653 78.1228H19.6259C18.8443 78.1228 18.2107 77.4893 18.2107 76.7077V53.3908L3.48113 68.3809C2.64768 69.2291 1.20042 68.7324 1.06786 67.5476C0.631085 63.6436 0.491752 60.4308 2.06434 56.6021C3.61346 52.8306 6.78847 48.5438 12.7292 42.328C13.5149 41.506 13.608 40.6283 13.2332 40.1276C12.7806 39.523 12.134 38.8436 11.1425 37.8018L11.1419 37.8011L11.14 37.7992C10.8359 37.4796 10.4994 37.126 10.1261 36.73C8.56439 35.0734 6.4423 32.7576 3.56058 29.2667C2.32728 27.7727 1.50369 25.9436 1.37277 23.9523C1.17705 20.9753 1.09594 16.7593 1.08434 13.7148C1.0798 12.5231 2.55361 11.9928 3.31982 12.8786ZM3.08102 15.6311L18.2107 33.1234V50.564L2.9125 66.1328C2.60713 62.9015 2.66738 60.3486 3.89702 57.3549C5.29767 53.9448 8.25123 49.8808 14.1615 43.6969C15.2317 42.5771 16.0541 40.5897 14.8192 38.9403C14.29 38.2333 13.5306 37.4359 12.511 36.3651C12.2183 36.0577 11.9041 35.7278 11.5678 35.371C10.0295 33.7392 7.93719 31.4563 5.08849 28.0054C4.08158 26.7856 3.4497 25.3424 3.34976 23.8223C3.19617 21.4863 3.11368 18.3463 3.08102 15.6311ZM30.2805 50.564V33.1234L45.4102 15.6311C45.3775 18.3463 45.295 21.4863 45.1414 23.8223C45.0415 25.3424 44.4096 26.7856 43.4027 28.0054C40.554 31.4563 38.4617 33.7392 36.9234 35.371C36.5872 35.7277 36.2731 36.0576 35.9804 36.3649L35.9802 36.3651C34.9606 37.4359 34.2012 38.2333 33.672 38.9403C32.4371 40.5897 33.2595 42.5771 34.3297 43.6969C40.24 49.8808 43.1935 53.9448 44.5942 57.3549C45.8238 60.3486 45.8841 62.9015 45.5787 66.1328L30.2805 50.564ZM19.9089 18.8579V76.4246H28.5823V18.8579H19.9089Z" fill="#fff"/>
</svg>